# xmcd
#
# Track frame offsets:
#	150
#	9496
#	27575
#	43406
#	58577
#	74201
#	88368
#	103015
#	118864
#	134744
#	151143
#	168386
#	180632
#	198494
#	214856
#	232008
#	248399
#	262867
#	272458
#	285547
#
# Disc length: 4030 seconds
#
# Revision: 1
# Processed by: cddbd v1.4PL0 Copyright (c) Steve Scherf et al.
# Submitted via: audiograbber 1.81.03
#
DISCID=2e0fbc14
DTITLE=Various Artist - Hott Country 60
DYEAR=2001
DGENRE=Country
TTITLE0=George Strait - Don't Make Me Come Over There And Love You
TTITLE1=Travis Tritt - It's A Great Day To Be ALive
TTITLE2=Faith Hill - I Got My Baby
TTITLE3=Tyler England/Steve Wariner - Should've Asked Her Faster
TTITLE4=Adam Gregory - No Vacancy
TTITLE5=Neal Coty - Legacy
TTITLE6=Joe Diffie - Better Off Gone
TTITLE7=Pam Tillis - Please
TTITLE8=Rick Tippe - Keepin' The Faith
TTITLE9=Jessica Andrews - Who I Am
TTITLE10=Chris Gagle - Laredo
TTITLE11=Billy Yates - What Do You Want From Me Now
TTITLE12=Rascal Flatts - Long Slow Beautiful Dance
TTITLE13=Mindy McCready - Scream
TTITLE14=Alison Moorer - Think It Over
TTITLE15=Chalee Tennison - Makin' Up With You
TTITLE16=Soggy Bottom Boys - I Am A Man Of Constant Sorrow
TTITLE17=Johnny Cash - I Won't Back Down
TTITLE18=Bruce Guthro - Little Girls
TTITLE19=Bill Engvall - Shoulda Shut Up
EXTD=
EXTT0=
EXTT1=
EXTT2=
EXTT3=
EXTT4=
EXTT5=
EXTT6=
EXTT7=
EXTT8=
EXTT9=
EXTT10=
EXTT11=
EXTT12=
EXTT13=
EXTT14=
EXTT15=
EXTT16=
EXTT17=
EXTT18=
EXTT19=
PLAYORDER=
